<?xml version="1.0" encoding="UTF-8" standalone="no"?>
<!-- Created with Inkscape (http://www.inkscape.org/) -->

<svg
   width="11in"
   height="8.5in"
   viewBox="0 0 279.4 215.9"
   version="1.1"
   id="svg1"
   inkscape:version="1.3 (0e150ed6c4, 2023-07-21)"
   sodipodi:docname="full.svg"
   xml:space="preserve"
   inkscape:export-filename="full.png"
   inkscape:export-xdpi="96"
   inkscape:export-ydpi="96"
   xmlns:inkscape="http://www.inkscape.org/namespaces/inkscape"
   xmlns:sodipodi="http://sodipodi.sourceforge.net/DTD/sodipodi-0.dtd"
   xmlns="http://www.w3.org/2000/svg"
   xmlns:svg="http://www.w3.org/2000/svg"><sodipodi:namedview
     id="namedview1"
     pagecolor="#ffffff"
     bordercolor="#000000"
     borderopacity="0.25"
     inkscape:showpageshadow="2"
     inkscape:pageopacity="0.0"
     inkscape:pagecheckerboard="0"
     inkscape:deskcolor="#d1d1d1"
     inkscape:document-units="mm"
     inkscape:zoom="0.52738496"
     inkscape:cx="166.86103"
     inkscape:cy="453.1794"
     inkscape:window-width="1440"
     inkscape:window-height="830"
     inkscape:window-x="-6"
     inkscape:window-y="-6"
     inkscape:window-maximized="1"
     inkscape:current-layer="layer1"
     inkscape:export-bgcolor="#ffffffff" /><defs
     id="defs1" /><g
     inkscape:label="Layer 1"
     inkscape:groupmode="layer"
     id="layer1"><g
       style="shape-rendering:crispEdges"
       id="g1"
       transform="matrix(16.666667,0,0,16.666667,29.994202,5.9309492)"><rect
         x="0"
         y="0"
         width="6"
         height="6"
         fill="#000000"
         id="rect1" /><rect
         width="1"
         height="1"
         x="1"
         y="1"
         fill="#ffffff"
         id="rect2" /><rect
         width="1.5"
         height="1"
         x="3"
         y="1"
         fill="#ffffff"
         id="rect3" /><rect
         width="1"
         height="1"
         x="4"
         y="1"
         fill="#ffffff"
         id="rect4" /><rect
         width="1"
         height="1.5"
         x="4"
         y="1"
         fill="#ffffff"
         id="rect5" /><rect
         width="1"
         height="1"
         x="2"
         y="2"
         fill="#ffffff"
         id="rect6" /><rect
         width="1"
         height="1"
         x="4"
         y="2"
         fill="#ffffff"
         id="rect7" /><rect
         width="1"
         height="1.5"
         x="4"
         y="2"
         fill="#ffffff"
         id="rect8" /><rect
         width="1.5"
         height="1"
         x="3"
         y="3"
         fill="#ffffff"
         id="rect9" /><rect
         width="1"
         height="1.5"
         x="3"
         y="3"
         fill="#ffffff"
         id="rect10" /><rect
         width="1"
         height="1"
         x="4"
         y="3"
         fill="#ffffff"
         id="rect11" /><rect
         width="1"
         height="1"
         x="3"
         y="4"
         fill="#ffffff"
         id="rect12" /></g><g
       style="shape-rendering:crispEdges"
       id="g2"
       transform="matrix(16.666667,0,0,16.666667,28.514357,112.7299)"><rect
         x="0"
         y="0"
         width="6"
         height="6"
         fill="#000000"
         id="rect1-4" /><rect
         width="1.5"
         height="1"
         x="3"
         y="1"
         fill="#ffffff"
         id="rect2-2" /><rect
         width="1"
         height="1.5"
         x="3"
         y="1"
         fill="#ffffff"
         id="rect3-2" /><rect
         width="1"
         height="1"
         x="4"
         y="1"
         fill="#ffffff"
         id="rect4-2" /><rect
         width="1"
         height="1.5"
         x="4"
         y="1"
         fill="#ffffff"
         id="rect5-3" /><rect
         width="1.5"
         height="1"
         x="3"
         y="2"
         fill="#ffffff"
         id="rect6-0" /><rect
         width="1"
         height="1.5"
         x="3"
         y="2"
         fill="#ffffff"
         id="rect7-1" /><rect
         width="1"
         height="1"
         x="4"
         y="2"
         fill="#ffffff"
         id="rect8-0" /><rect
         width="1"
         height="1"
         x="3"
         y="3"
         fill="#ffffff"
         id="rect9-2" /><rect
         width="1.5"
         height="1"
         x="1"
         y="4"
         fill="#ffffff"
         id="rect10-4" /><rect
         width="1"
         height="1"
         x="2"
         y="4"
         fill="#ffffff"
         id="rect11-6" /><rect
         width="1"
         height="1"
         x="4"
         y="4"
         fill="#ffffff"
         id="rect12-2" /></g><g
       style="shape-rendering:crispEdges"
       id="g3"
       transform="matrix(16.666667,0,0,16.666667,140.97881,112.75511)"><rect
         x="0"
         y="0"
         width="6"
         height="6"
         fill="#000000"
         id="rect1-7" /><rect
         width="1"
         height="1"
         x="1"
         y="1"
         fill="#ffffff"
         id="rect2-9" /><rect
         width="1"
         height="1.5"
         x="1"
         y="1"
         fill="#ffffff"
         id="rect3-0" /><rect
         width="1"
         height="1"
         x="4"
         y="1"
         fill="#ffffff"
         id="rect4-26" /><rect
         width="1"
         height="1.5"
         x="4"
         y="1"
         fill="#ffffff"
         id="rect5-5" /><rect
         width="1"
         height="1"
         x="1"
         y="2"
         fill="#ffffff"
         id="rect6-3" /><rect
         width="1"
         height="1"
         x="4"
         y="2"
         fill="#ffffff"
         id="rect7-5" /><rect
         width="1"
         height="1"
         x="2"
         y="3"
         fill="#ffffff"
         id="rect8-3" /><rect
         width="1"
         height="1.5"
         x="2"
         y="3"
         fill="#ffffff"
         id="rect9-8" /><rect
         width="1.5"
         height="1"
         x="2"
         y="4"
         fill="#ffffff"
         id="rect10-46" /><rect
         width="1"
         height="1"
         x="3"
         y="4"
         fill="#ffffff"
         id="rect11-3" /></g><g
       style="shape-rendering:crispEdges"
       id="g4"
       transform="matrix(16.666667,0,0,16.666667,125.92814,8.9054432)"><g
         id="g5"
         transform="translate(0.30101351,-0.0602027)"><rect
           x="0.602027"
           y="-0.090304054"
           width="6"
           height="6"
           fill="#000000"
           id="rect1-5" /><rect
           width="1.5"
           height="1"
           x="1.6020271"
           y="1.909696"
           fill="#ffffff"
           id="rect2-8" /><rect
           width="1"
           height="1.5"
           x="1.6020271"
           y="1.909696"
           fill="#ffffff"
           id="rect3-8" /><rect
           width="1.5"
           height="1"
           x="2.6020269"
           y="1.909696"
           fill="#ffffff"
           id="rect4-5" /><rect
           width="1.5"
           height="1"
           x="3.6020269"
           y="1.909696"
           fill="#ffffff"
           id="rect5-9" /><rect
           width="1"
           height="1"
           x="4.6020269"
           y="1.909696"
           fill="#ffffff"
           id="rect6-7" /><rect
           width="1"
           height="1.5"
           x="4.6020269"
           y="1.909696"
           fill="#ffffff"
           id="rect7-50" /><rect
           width="1"
           height="1"
           x="1.6020271"
           y="2.9096959"
           fill="#ffffff"
           id="rect8-4" /><rect
           width="1"
           height="1.5"
           x="1.6020271"
           y="2.9096959"
           fill="#ffffff"
           id="rect9-80" /><rect
           width="1"
           height="1"
           x="4.6020269"
           y="2.9096959"
           fill="#ffffff"
           id="rect10-3" /><rect
           width="1"
           height="1"
           x="1.6020271"
           y="3.9096959"
           fill="#ffffff"
           id="rect11-1" /><rect
           width="1"
           height="1"
           x="3.6020269"
           y="3.9096959"
           fill="#ffffff"
           id="rect12-3" /></g></g></g></svg>
